# xmcd
#
# Track frame offsets: 
#        150
#        33984
#        67118
#
# Disc length: 1330 seconds
#
# Revision: 0
# Processed by: cddbd v1.5.2PL0 Copyright (c) Steve Scherf et al.
# Submitted via: ExactAudioCopy v0.95b4
#
DISCID=23053003
DTITLE=Derler and Klitzing - Dumb People
DYEAR=1900
DGENRE=
TTITLE0=Dumb People - Original Mix
TTITLE1=The feeling - Original Mix
TTITLE2=Dumb People - Situation Mix
EXTD=
EXTT0=
EXTT1=
EXTT2=
PLAYORDER=
